<?xml version="1.0" encoding="utf-8"?>
<!-- Generator: Adobe Illustrator 18.1.1, SVG Export Plug-In . SVG Version: 6.00 Build 0)  -->
<svg version="1.1" id="Layer_1" xmlns="http://www.w3.org/2000/svg" xmlns:xlink="http://www.w3.org/1999/xlink" x="0px" y="0px"
	 viewBox="0 0 640 341.7" enable-background="new 0 0 640 341.7" xml:space="preserve">
<g>
	<path fill="#231F20" d="M42.8,208.3h19v53.4h44.1v-53.4h19v126h-19v-53.4H61.8v53.4h-19V208.3z"/>
	<path fill="#231F20" d="M145.3,208.3h58v19.2h-38.9v46.6h38.9v19.2h-38.9v21.9h38.9v19.2h-58V208.3z"/>
	<path fill="#231F20" d="M223.7,208.3h19.1v106.9h43.5v19.2h-62.6V208.3z"/>
	<path fill="#231F20" d="M325.8,307.4v27h-19V207.4h20.5c13.7,0,25.4,4.9,35.1,14.6c9.7,9.8,14.5,21.5,14.5,35.3
		c0,13.8-4.8,25.6-14.5,35.4c-9.7,9.8-21.4,14.6-35.1,14.6H325.8z M325.8,288.4h1.4c8.5,0,15.8-3,21.8-9.1c6-6.1,9-13.4,9-21.9
		c0-8.6-3-15.9-9-21.9c-6-6-13.3-9.1-21.8-9.1h-1.4V288.4z"/>
	<path fill="#231F20" d="M397.3,315.1h16.3v19.2h-16.3V315.1z"/>
	<path fill="#231F20" d="M499.4,208h15.9v126.6h-19.1v-61.2l-21.5,57.8l-21.6-58.7v61.9h-19V208h15.9l24.7,67.8L499.4,208z"/>
	<path fill="#231F20" d="M535.8,208.3h58v19.2h-38.9v46.6h38.9v19.2h-38.9v21.9h38.9v19.2h-58V208.3z"/>
</g>
<g>
	<path fill="#231F20" d="M42.9,95.8h13.9v39.1h32.2V95.8H103v92.2H89.1V149H56.8v39.1H42.9V95.8z"/>
	<path fill="#231F20" d="M211.8,141.7c0,6.4-1.2,12.5-3.7,18.1c-2.5,5.6-5.8,10.5-10.1,14.7c-4.3,4.2-9.2,7.5-14.9,9.9
		c-5.7,2.4-11.8,3.7-18.3,3.7c-6.6,0-12.7-1.2-18.4-3.7c-5.7-2.4-10.7-5.8-14.9-9.9c-4.3-4.2-7.6-9.1-10.1-14.7
		c-2.5-5.6-3.7-11.6-3.7-18.1c0-6.4,1.2-12.4,3.7-18.1c2.5-5.7,5.8-10.6,10.1-14.8c4.3-4.2,9.2-7.5,14.9-9.9
		c5.7-2.4,11.8-3.6,18.4-3.6c6.5,0,12.6,1.2,18.3,3.6c5.7,2.4,10.7,5.7,14.9,9.9c4.3,4.2,7.6,9.1,10.1,14.8
		C210.6,129.3,211.8,135.3,211.8,141.7z M132.7,141.7c0,4.5,0.8,8.7,2.5,12.6s3.9,7.3,6.8,10.2c2.9,2.9,6.3,5.2,10.2,6.8
		c3.9,1.6,8.1,2.5,12.5,2.5c4.4,0,8.5-0.8,12.4-2.5c3.9-1.7,7.3-3.9,10.2-6.8c2.9-2.9,5.2-6.3,6.8-10.2s2.5-8.1,2.5-12.6
		c0-4.5-0.8-8.7-2.5-12.6c-1.7-3.9-3.9-7.3-6.8-10.2c-2.9-2.9-6.3-5.2-10.2-6.8c-3.9-1.6-8-2.4-12.4-2.4c-4.4,0-8.6,0.8-12.5,2.4
		c-3.9,1.6-7.3,3.9-10.2,6.8c-2.9,2.9-5.2,6.3-6.8,10.2C133.6,133,132.7,137.2,132.7,141.7z"/>
	<path fill="#231F20" d="M261.1,145l20.7-31.9l13.9-21.5v96.5h-13.9v-49.3l-20.7,31.9l-20.7-31.9v49.3h-13.9V91.6l13.9,21.5
		L261.1,145z"/>
	<path fill="#231F20" d="M310.4,95.8h42.4v14h-28.4V144h28.4v14h-28.4v16h28.4v14h-42.4V95.8z"/>
	<path fill="#231F20" d="M367.5,95.8h14V174h31.8v14h-45.8V95.8z"/>
	<path fill="#231F20" d="M428,95.8h42.4v14H442V144h28.4v14H442v16h28.4v14H428V95.8z"/>
	<path fill="#231F20" d="M505.4,188.2c-4,0-7.5-0.5-10.5-1.5c-3-1-6.3-2.8-9.8-5.4v-17.2c2.2,2.3,3.8,3.9,5,4.7
		c1.2,0.8,2.6,1.7,4.3,2.6c1.7,0.9,3.5,1.7,5.6,2.3c2,0.6,4,0.9,6,0.9c4.1,0,7.5-1.4,10.1-4.3c2.6-2.9,4-6.3,4-10.2
		c0-3.2-1.1-5.8-3.4-7.8c-2.2-2-5.9-4.3-11-6.9c-3.1-1.6-5.7-3-7.8-4.3c-2.1-1.3-4.1-2.9-6.1-4.8c-1.9-1.9-3.5-4.2-4.7-6.9
		c-1.2-2.7-1.8-5.8-1.8-9.4c0.2-3.5,1-6.8,2.6-9.8s3.6-5.7,6.2-8c2.6-2.3,5.6-4,8.9-5.3c3.3-1.3,6.9-1.9,10.5-1.9
		c2.8,0.1,5.3,0.5,7.6,1.2c2.3,0.7,4.9,1.9,7.8,3.7v14.5c-1.7-1.2-2.9-1.9-3.6-2.2c-0.6-0.3-1.6-0.7-2.7-1.4
		c-1.2-0.6-2.6-1.2-4.1-1.7c-1.6-0.5-3.2-0.7-4.9-0.7c-3.9,0-7.2,1.3-9.9,3.7c-2.7,2.4-4,5.3-4,8.5c0.1,3.1,1.2,5.5,3.4,7.3
		c2.2,1.8,5.7,3.8,10.5,6.1c3.3,1.6,6,3,8.1,4.2c2.1,1.2,4.2,2.8,6.2,4.7c2,1.9,3.7,4.3,4.9,7.3c1.2,2.9,1.9,6.4,2,10.4
		c0,3.7-0.8,7.2-2.3,10.5c-1.5,3.3-3.7,6.3-6.4,8.8c-2.7,2.6-5.9,4.5-9.4,6C513,187.5,509.3,188.2,505.4,188.2z"/>
	<path fill="#231F20" d="M569.7,188.2c-4,0-7.5-0.5-10.5-1.5s-6.3-2.8-9.8-5.4v-17.2c2.2,2.3,3.8,3.9,5,4.7c1.2,0.8,2.6,1.7,4.3,2.6
		c1.7,0.9,3.5,1.7,5.6,2.3c2,0.6,4,0.9,6,0.9c4.1,0,7.5-1.4,10.1-4.3c2.6-2.9,4-6.3,4-10.2c0-3.2-1.1-5.8-3.4-7.8
		c-2.2-2-5.9-4.3-11-6.9c-3.1-1.6-5.7-3-7.8-4.3c-2.1-1.3-4.1-2.9-6.1-4.8c-1.9-1.9-3.5-4.2-4.7-6.9c-1.2-2.7-1.8-5.8-1.8-9.4
		c0.2-3.5,1-6.8,2.6-9.8c1.5-3,3.6-5.7,6.2-8c2.6-2.3,5.6-4,8.9-5.3c3.3-1.3,6.9-1.9,10.5-1.9c2.8,0.1,5.3,0.5,7.6,1.2
		c2.3,0.7,4.9,1.9,7.8,3.7v14.5c-1.7-1.2-2.9-1.9-3.6-2.2c-0.6-0.3-1.6-0.7-2.7-1.4c-1.2-0.6-2.6-1.2-4.1-1.7
		c-1.6-0.5-3.2-0.7-4.9-0.7c-3.9,0-7.2,1.3-9.9,3.7c-2.7,2.4-4,5.3-4,8.5c0.1,3.1,1.2,5.5,3.4,7.3c2.2,1.8,5.7,3.8,10.5,6.1
		c3.3,1.6,6,3,8.1,4.2c2.1,1.2,4.2,2.8,6.2,4.7c2,1.9,3.7,4.3,4.9,7.3c1.2,2.9,1.9,6.4,2,10.4c0,3.7-0.8,7.2-2.3,10.5
		c-1.5,3.3-3.7,6.3-6.4,8.8c-2.7,2.6-5.9,4.5-9.4,6C577.2,187.5,573.5,188.2,569.7,188.2z"/>
</g>
<line fill="#174888" stroke="#174888" stroke-width="7" stroke-miterlimit="10" x1="-0.7" y1="82.9" x2="320.9" y2="9.2"/>
<line fill="#174888" stroke="#174888" stroke-width="7" stroke-miterlimit="10" x1="640.2" y1="82.9" x2="318.6" y2="9.2"/>
</svg>
